PathFileType	4	(X/Y/Z)	Patient4_TMGait_0pt5_01_left_01.trc.trc
DataRate	CameraRate	NumFrames	NumMarkers	Units	OrigDataRate	OrigDataStartFrame	OrigNumFrames
73.684210526316	73.684210526316	5	33	mm	73.684210526316	71	       141
Frame#	Time	L.ASIS			Sacral			L.Shoulder			Chest			R.Shoulder			Neck			R.ASIS			R.Thigh.Superior			R.Thigh.Lateral			R.Thigh.Inferior			R.Patella			L.Thigh.Superior			L.Thigh.Lateral			L.Thigh.Inferior			L.Patella			L.Shank.Superior			L.Shank.Lateral			L.Shank.Inferior			R.Shank.Superior			R.Shank.Lateral			R.Shank.Inferior			R.Heel			R.Midfoot.Superior			R.Midfoot.Lateral			R.Toe			L.Heel			L.Midfoot.Lateral			L.Midfoot.Superior			L.Toe			L.Elbow			L.Wrist			R.Elbow			R.Wrist			
		X1	Y1	Z1	X2	Y2	Z2	X3	Y3	Z3	X4	Y4	Z4	X5	Y5	Z5	X6	Y6	Z6	X7	Y7	Z7	X8	Y8	Z8	X9	Y9	Z9	X10	Y10	Z10	X11	Y11	Z11	X12	Y12	Z12	X13	Y13	Z13	X14	Y14	Z14	X15	Y15	Z15	X16	Y16	Z16	X17	Y17	Z17	X18	Y18	Z18	X19	Y19	Z19	X20	Y20	Z20	X21	Y21	Z21	X22	Y22	Z22	X23	Y23	Z23	X24	Y24	Z24	X25	Y25	Z25	X26	Y26	Z26	X27	Y27	Z27	X28	Y28	Z28	X29	Y29	Z29	X30	Y30	Z30	X31	Y31	Z31	X32	Y32	Z32	X33	Y33	Z33	

71	2.120000000000	770.433882949679	960.631048875580	299.850453150518	539.169458862230	999.345323877580	427.532738852923	725.320294442081	1431.576618344235	263.854255136324	802.261540474712	1366.435216258378	440.797225513692	690.202319144542	1440.205462272184	598.642962402782	698.827088590545	1494.499959031892	412.022839192621	750.411544159329	942.272169441604	575.029388181073	822.280316115523	760.272130458619	554.470238448881	765.911427022490	641.250553977782	619.273409030929	858.428833717124	599.979220961916	544.909683799708	888.945882046298	520.071442275899	558.824194512275	783.912693694670	737.107323553220	329.325509746323	676.009788893402	635.626910491107	266.417746666090	738.359014614413	547.548617196661	334.561912955707	725.704870840808	479.469736214108	345.515314290738	696.074015943312	411.720522877883	338.879457738184	599.312181135315	301.234858821214	291.198112245587	643.029795912011	190.288158230645	368.191644497763	879.532116039618	436.047603444704	567.570433496462	835.533910351946	318.473193387544	628.954375463947	913.941865994871	239.041571000853	579.463639701637	837.651111945935	45.186988566347	547.020225299554	992.851875454962	132.391800136286	594.846078705917	918.771927616078	49.955620054910	624.277132801652	1117.681215133842	104.705858296804	625.930579930773	508.827503339668	38.465506668501	420.080619159314	579.903793851521	34.632305518392	336.867116167130	664.344468453019	95.019527837924	359.898317360789	791.446328009014	43.193951908881	328.446846009892	800.587262538537	1104.951247454579	109.231806247833	1040.777675829417	1011.178294259447	144.105408782914	554.150074817069	1123.446706013984	702.875229190904	541.938417153494	864.547751383005	730.764418892819	
72	2.133571428571	771.576840693712	959.995918457319	301.516332950860	539.991284440830	998.332008322798	428.927503320460	725.803212623324	1430.428286812019	265.139249177500	802.291233320137	1365.837246586797	442.420918457708	689.621702728619	1439.660511853677	599.823628750959	698.711368218665	1493.616305842877	413.051877468866	751.322848537938	941.294524207743	576.782903597525	823.478655034236	759.340653658447	555.657515184475	766.924939183119	639.874737578700	619.936379533233	859.235347881942	598.834436819532	545.478742981579	889.468810357012	518.986938934124	558.983789218653	783.087195299454	735.892036358505	330.436939309796	674.197121125072	635.334540839446	267.344765989972	735.682967826262	546.637430780137	335.396223473385	722.470602339008	478.455731998590	346.168368746584	692.204235790332	411.027007512106	339.427477547903	594.374985119754	301.472184537040	291.513783358465	637.171995633980	189.986407578405	368.270578030507	879.977918244548	434.559411571284	567.644158350466	835.879127070607	317.149298577014	629.098302708655	913.652554153905	237.562284805652	579.227363934208	836.146046605669	45.054103083271	547.019564690990	992.414847405878	130.019889085348	593.990090287571	917.654316874017	48.700274733958	623.817491289270	1116.986768916538	100.742633994435	624.279251007752	502.015623369903	38.575238834211	420.011084580436	573.088428534337	34.669550341854	336.844319242776	657.589207606596	94.990776819634	359.879352349484	784.637282014926	42.971269892694	328.443061021454	801.791226510868	1103.445466634160	111.654525388263	1043.158360967740	1013.062747662551	146.624077683970	551.567261602628	1123.965908851160	703.446797683102	540.207606516480	864.873736930737	731.126979275511	
73	2.147142857143	772.701255501819	959.272198240209	303.235762618761	540.958015882143	997.186048448260	430.666587503473	726.145088463098	1429.213428097571	266.581818298158	802.321511409466	1365.215243966607	444.160458932404	689.039235887716	1438.998657031758	601.173845081241	698.515444560972	1492.647341719941	414.269176065843	752.564725624599	940.238931371787	578.599430679347	825.288929717597	758.496369925473	556.696511742573	768.718689341317	638.538545279297	620.517426501945	860.736265146901	597.775698227761	545.908710215273	890.573931935031	517.651837196610	559.102443543740	782.483339414151	734.645779200416	331.593093740049	672.644942124323	634.957963248422	268.407516028387	733.360702249360	545.659892875055	336.324089051730	719.588808437542	477.319178069279	346.962300823065	688.638777041133	410.215903007372	340.090368355399	589.663858984758	301.698438698534	291.931327682713	631.421864837638	189.630900074071	368.405602222014	880.492018351619	432.589337138209	567.626340429977	835.461659039062	315.661275820076	629.123308887862	911.909004707932	235.373924573182	578.815382004720	831.717668895947	44.899078458035	546.909151468343	989.533942074814	126.616579929253	592.921371809667	913.592517493871	47.045388118714	623.293572378467	1113.667049806950	95.007411560882	622.508844249313	495.201512202947	38.666170558936	419.924158842306	566.283243550332	34.696885187728	336.820889492240	650.836924456225	94.965840098072	359.872898987678	777.840971564721	42.734309964966	328.440239215910	802.699720263964	1101.727782436588	114.360421466303	1044.957988378695	1013.893823512266	149.333430227686	549.687046041546	1124.005576467874	704.151622078811	539.751664667631	864.689773255040	731.599551493574	
74	2.160714285714	773.800225934158	958.463021697239	305.005653209440	542.082579500742	995.934579664857	432.754423093322	726.343488595424	1427.948856376658	268.187406554473	802.373980153217	1364.577279998634	446.013429763616	688.489229602238	1438.226682505220	602.697359639877	698.261106713513	1491.607562257174	415.692232653548	754.142437520910	939.107726282326	580.464210131762	827.608874023952	757.664859994905	557.623523542948	771.088482522346	637.215580526665	621.031445105317	862.769111436241	596.756474749406	546.235839123038	892.074720431408	516.069103913236	559.148366369031	782.108583349253	733.375900225006	332.778224285869	671.332300879371	634.509099257596	269.607857981214	731.375564351382	544.621828828406	337.334606425333	717.047168291299	476.063832310669	347.886738631190	685.359742130178	409.296022751837	340.861990853902	585.154015594189	301.925145215573	292.454448082890	625.769456268736	189.231015311947	368.592811512305	881.012695991870	430.202347801047	567.523314588375	834.414048563753	313.997160563216	629.054915628309	908.992015441006	232.589836468928	578.246033813423	824.983722992598	44.650729191437	546.728993435418	984.661044947513	122.444875780476	591.663729214611	907.202116668449	45.101028171562	622.745894134690	1108.246033994431	88.036716013859	620.646800450660	488.380460122974	38.744926713836	419.814425790382	559.489951476799	34.711795745363	336.794737724658	644.091264229992	94.945265497331	359.873434697249	771.063268281243	42.479294110761	328.434522010150	803.317205547427	1099.835895937409	117.315638750901	1046.193982859441	1013.665962355881	152.211515055288	548.546033629801	1123.574938017305	705.054908705746	540.560974738744	864.013619555453	732.201020142139	
75	2.174285714286	774.878966457453	957.587841752482	306.829233362551	543.367096427076	994.620264342024	435.181905737687	726.400642530233	1426.663221282619	269.962932259023	802.472822668119	1363.941140266439	447.976827968497	688.018851026380	1437.367203861559	604.400810864307	697.977966182093	1490.525800451135	417.337774105944	756.045167362998	937.920922986889	582.365021014038	830.322665377413	756.796353892843	558.475296128055	773.821634444771	635.902326231826	621.494471233315	865.158395875256	595.754986044191	546.489403199969	893.783000255405	514.277832960952	559.094202359151	781.959694086962	732.098917792155	333.985891193067	670.233994505607	634.007969421120	270.949826865109	729.708435946470	543.538719405950	338.422290641582	714.837399116211	474.702919897367	348.926908662299	682.347407498244	408.287193263804	341.734587389621	580.817936789052	302.174773260597	293.087553644347	620.206478928892	188.805780924450	368.827266320741	881.485456468983	427.511253043200	567.351078817939	832.896936477965	312.192605693423	628.924831138710	905.224360041073	229.391486272599	577.550954518436	816.641574604506	44.296264373125	546.516331311201	978.315226342783	117.848504661352	590.261251741353	899.173702319422	43.033651093812	622.214612101678	1101.309564627515	80.455951107993	618.745462131019	481.549212131690	38.832165459020	419.677834637667	552.710852636177	34.716826810607	336.763959820496	637.361488085044	94.930573585945	359.872731171063	764.310901928710	42.203236199017	328.421518559692	803.642944678688	1097.814107525827	120.490957118642	1046.868312245740	1012.383096132414	155.224375076909	548.183624827225	1122.707432907485	706.222385281483	542.619182983645	862.886459942767	732.949346044930	
